<mxfile host="Electron" modified="2023-05-09T09:42:26.156Z" agent="Mozilla/5.0 (Windows NT 10.0; Win64; x64) AppleWebKit/537.36 (KHTML, like Gecko) draw.io/21.2.8 Chrome/112.0.5615.165 Electron/24.2.0 Safari/537.36" etag="946OB_wxQq1ZcW7O7rbN" version="21.2.8" type="device" pages="2">
  <diagram id="kgpKYQtTHZ0yAKxKKP6v" name="Ver1">
    <mxGraphModel dx="2074" dy="1205" grid="1" gridSize="10" guides="1" tooltips="1" connect="1" arrows="1" fold="1" page="1" pageScale="1" pageWidth="850" pageHeight="1100" math="0" shadow="0">
      <root>
        <mxCell id="0" />
        <mxCell id="1" parent="0" />
        <mxCell id="H2wxgID-5hjO3u1uiLOb-33" value="Port Operation Logic" style="shape=table;startSize=60;container=1;collapsible=0;childLayout=tableLayout;strokeColor=default;fontSize=16;" parent="1" vertex="1">
          <mxGeometry x="80" y="160" width="880" height="520" as="geometry" />
        </mxCell>
        <mxCell id="H2wxgID-5hjO3u1uiLOb-34" value="" style="shape=tableRow;horizontal=0;startSize=0;swimlaneHead=0;swimlaneBody=0;strokeColor=inherit;top=0;left=0;bottom=0;right=0;collapsible=0;dropTarget=0;fillColor=none;points=[[0,0.5],[1,0.5]];portConstraint=eastwest;fontSize=16;" parent="H2wxgID-5hjO3u1uiLOb-33" vertex="1">
          <mxGeometry y="60" width="880" height="40" as="geometry" />
        </mxCell>
        <mxCell id="H2wxgID-5hjO3u1uiLOb-35" value="Vessel" style="shape=partialRectangle;html=1;whiteSpace=wrap;connectable=0;strokeColor=inherit;overflow=hidden;fillColor=none;top=0;left=0;bottom=0;right=0;pointerEvents=1;fontSize=16;" parent="H2wxgID-5hjO3u1uiLOb-34" vertex="1">
          <mxGeometry width="200" height="40" as="geometry">
            <mxRectangle width="200" height="40" as="alternateBounds" />
          </mxGeometry>
        </mxCell>
        <mxCell id="H2wxgID-5hjO3u1uiLOb-36" value="Port" style="shape=partialRectangle;html=1;whiteSpace=wrap;connectable=0;strokeColor=inherit;overflow=hidden;fillColor=none;top=0;left=0;bottom=0;right=0;pointerEvents=1;fontSize=16;" parent="H2wxgID-5hjO3u1uiLOb-34" vertex="1">
          <mxGeometry x="200" width="480" height="40" as="geometry">
            <mxRectangle width="480" height="40" as="alternateBounds" />
          </mxGeometry>
        </mxCell>
        <mxCell id="H2wxgID-5hjO3u1uiLOb-37" value="External Truck" style="shape=partialRectangle;html=1;whiteSpace=wrap;connectable=0;strokeColor=inherit;overflow=hidden;fillColor=none;top=0;left=0;bottom=0;right=0;pointerEvents=1;fontSize=16;" parent="H2wxgID-5hjO3u1uiLOb-34" vertex="1">
          <mxGeometry x="680" width="200" height="40" as="geometry">
            <mxRectangle width="200" height="40" as="alternateBounds" />
          </mxGeometry>
        </mxCell>
        <mxCell id="H2wxgID-5hjO3u1uiLOb-38" value="" style="shape=tableRow;horizontal=0;startSize=0;swimlaneHead=0;swimlaneBody=0;strokeColor=inherit;top=0;left=0;bottom=0;right=0;collapsible=0;dropTarget=0;fillColor=none;points=[[0,0.5],[1,0.5]];portConstraint=eastwest;fontSize=16;" parent="H2wxgID-5hjO3u1uiLOb-33" vertex="1">
          <mxGeometry y="100" width="880" height="420" as="geometry" />
        </mxCell>
        <mxCell id="H2wxgID-5hjO3u1uiLOb-39" value="" style="shape=partialRectangle;html=1;whiteSpace=wrap;connectable=0;strokeColor=inherit;overflow=hidden;fillColor=none;top=0;left=0;bottom=0;right=0;pointerEvents=1;fontSize=16;" parent="H2wxgID-5hjO3u1uiLOb-38" vertex="1">
          <mxGeometry width="200" height="420" as="geometry">
            <mxRectangle width="200" height="420" as="alternateBounds" />
          </mxGeometry>
        </mxCell>
        <mxCell id="H2wxgID-5hjO3u1uiLOb-40" value="" style="shape=partialRectangle;html=1;whiteSpace=wrap;connectable=0;strokeColor=inherit;overflow=hidden;fillColor=none;top=0;left=0;bottom=0;right=0;pointerEvents=1;fontSize=16;" parent="H2wxgID-5hjO3u1uiLOb-38" vertex="1">
          <mxGeometry x="200" width="480" height="420" as="geometry">
            <mxRectangle width="480" height="420" as="alternateBounds" />
          </mxGeometry>
        </mxCell>
        <mxCell id="H2wxgID-5hjO3u1uiLOb-41" value="" style="shape=partialRectangle;html=1;whiteSpace=wrap;connectable=0;strokeColor=inherit;overflow=hidden;fillColor=none;top=0;left=0;bottom=0;right=0;pointerEvents=1;fontSize=16;" parent="H2wxgID-5hjO3u1uiLOb-38" vertex="1">
          <mxGeometry x="680" width="200" height="420" as="geometry">
            <mxRectangle width="200" height="420" as="alternateBounds" />
          </mxGeometry>
        </mxCell>
        <mxCell id="H2wxgID-5hjO3u1uiLOb-78" style="edgeStyle=orthogonalEdgeStyle;rounded=0;orthogonalLoop=1;jettySize=auto;html=1;" parent="1" source="H2wxgID-5hjO3u1uiLOb-70" target="H2wxgID-5hjO3u1uiLOb-77" edge="1">
          <mxGeometry relative="1" as="geometry" />
        </mxCell>
        <mxCell id="H2wxgID-5hjO3u1uiLOb-70" value="Arrive" style="rounded=1;whiteSpace=wrap;html=1;arcSize=50;" parent="1" vertex="1">
          <mxGeometry x="120" y="270" width="120" height="60" as="geometry" />
        </mxCell>
        <mxCell id="H2wxgID-5hjO3u1uiLOb-71" value="Departure" style="rounded=1;whiteSpace=wrap;html=1;arcSize=50;" parent="1" vertex="1">
          <mxGeometry x="120" y="601" width="120" height="60" as="geometry" />
        </mxCell>
        <mxCell id="H2wxgID-5hjO3u1uiLOb-96" style="edgeStyle=orthogonalEdgeStyle;rounded=0;orthogonalLoop=1;jettySize=auto;html=1;" parent="1" source="H2wxgID-5hjO3u1uiLOb-73" target="H2wxgID-5hjO3u1uiLOb-95" edge="1">
          <mxGeometry relative="1" as="geometry" />
        </mxCell>
        <mxCell id="H2wxgID-5hjO3u1uiLOb-73" value="Arrive" style="rounded=1;whiteSpace=wrap;html=1;arcSize=50;" parent="1" vertex="1">
          <mxGeometry x="800" y="270" width="120" height="60" as="geometry" />
        </mxCell>
        <mxCell id="H2wxgID-5hjO3u1uiLOb-74" value="Departure" style="rounded=1;whiteSpace=wrap;html=1;arcSize=50;" parent="1" vertex="1">
          <mxGeometry x="800" y="601" width="120" height="60" as="geometry" />
        </mxCell>
        <mxCell id="H2wxgID-5hjO3u1uiLOb-75" value="Load&amp;nbsp;&lt;br&gt;Container" style="rounded=0;whiteSpace=wrap;html=1;" parent="1" vertex="1">
          <mxGeometry x="100" y="415" width="70" height="60" as="geometry" />
        </mxCell>
        <mxCell id="H2wxgID-5hjO3u1uiLOb-76" value="Unload&amp;nbsp;&lt;br&gt;Container" style="rounded=0;whiteSpace=wrap;html=1;" parent="1" vertex="1">
          <mxGeometry x="190" y="415" width="70" height="60" as="geometry" />
        </mxCell>
        <mxCell id="H2wxgID-5hjO3u1uiLOb-79" style="edgeStyle=orthogonalEdgeStyle;rounded=0;orthogonalLoop=1;jettySize=auto;html=1;" parent="1" source="H2wxgID-5hjO3u1uiLOb-77" target="H2wxgID-5hjO3u1uiLOb-71" edge="1">
          <mxGeometry relative="1" as="geometry" />
        </mxCell>
        <mxCell id="H2wxgID-5hjO3u1uiLOb-102" value="Receive" style="edgeStyle=orthogonalEdgeStyle;rounded=0;orthogonalLoop=1;jettySize=auto;html=1;exitX=1;exitY=0.25;exitDx=0;exitDy=0;entryX=0;entryY=0.25;entryDx=0;entryDy=0;" parent="1" source="H2wxgID-5hjO3u1uiLOb-77" target="H2wxgID-5hjO3u1uiLOb-80" edge="1">
          <mxGeometry x="0.0811" y="-2" relative="1" as="geometry">
            <mxPoint y="1" as="offset" />
          </mxGeometry>
        </mxCell>
        <mxCell id="H2wxgID-5hjO3u1uiLOb-77" value="" style="rounded=0;whiteSpace=wrap;html=1;fillColor=none;dashed=1;dashPattern=8 8;" parent="1" vertex="1">
          <mxGeometry x="90" y="390" width="180" height="110" as="geometry" />
        </mxCell>
        <mxCell id="H2wxgID-5hjO3u1uiLOb-88" style="edgeStyle=orthogonalEdgeStyle;rounded=0;orthogonalLoop=1;jettySize=auto;html=1;entryX=0;entryY=0.25;entryDx=0;entryDy=0;exitX=1;exitY=0.25;exitDx=0;exitDy=0;" parent="1" source="H2wxgID-5hjO3u1uiLOb-80" target="H2wxgID-5hjO3u1uiLOb-109" edge="1">
          <mxGeometry relative="1" as="geometry">
            <mxPoint x="480" y="417.5" as="targetPoint" />
          </mxGeometry>
        </mxCell>
        <mxCell id="H2wxgID-5hjO3u1uiLOb-89" value="Receive" style="edgeLabel;html=1;align=center;verticalAlign=middle;resizable=0;points=[];" parent="H2wxgID-5hjO3u1uiLOb-88" vertex="1" connectable="0">
          <mxGeometry x="-0.1865" y="-1" relative="1" as="geometry">
            <mxPoint as="offset" />
          </mxGeometry>
        </mxCell>
        <mxCell id="H2wxgID-5hjO3u1uiLOb-104" style="edgeStyle=orthogonalEdgeStyle;rounded=0;orthogonalLoop=1;jettySize=auto;html=1;entryX=1;entryY=0.75;entryDx=0;entryDy=0;exitX=0;exitY=0.75;exitDx=0;exitDy=0;" parent="1" source="H2wxgID-5hjO3u1uiLOb-80" target="H2wxgID-5hjO3u1uiLOb-77" edge="1">
          <mxGeometry relative="1" as="geometry" />
        </mxCell>
        <mxCell id="H2wxgID-5hjO3u1uiLOb-105" value="Dispatch" style="edgeLabel;html=1;align=center;verticalAlign=middle;resizable=0;points=[];" parent="H2wxgID-5hjO3u1uiLOb-104" vertex="1" connectable="0">
          <mxGeometry x="-0.2553" y="-1" relative="1" as="geometry">
            <mxPoint as="offset" />
          </mxGeometry>
        </mxCell>
        <mxCell id="H2wxgID-5hjO3u1uiLOb-80" value="Quay&lt;br&gt;Crane" style="shape=process;whiteSpace=wrap;html=1;backgroundOutline=1;" parent="1" vertex="1">
          <mxGeometry x="344" y="390" width="60" height="110" as="geometry" />
        </mxCell>
        <mxCell id="H2wxgID-5hjO3u1uiLOb-83" value="Yard" style="rounded=0;whiteSpace=wrap;html=1;fillColor=none;dashed=1;horizontal=1;verticalAlign=top;" parent="1" vertex="1">
          <mxGeometry x="440" y="340" width="270" height="310" as="geometry" />
        </mxCell>
        <mxCell id="H2wxgID-5hjO3u1uiLOb-92" value="Dispatch" style="edgeStyle=orthogonalEdgeStyle;rounded=0;orthogonalLoop=1;jettySize=auto;html=1;entryX=1;entryY=0.75;entryDx=0;entryDy=0;exitX=0;exitY=0.75;exitDx=0;exitDy=0;" parent="1" source="H2wxgID-5hjO3u1uiLOb-109" target="H2wxgID-5hjO3u1uiLOb-80" edge="1">
          <mxGeometry relative="1" as="geometry">
            <mxPoint x="480" y="472.5" as="sourcePoint" />
          </mxGeometry>
        </mxCell>
        <mxCell id="H2wxgID-5hjO3u1uiLOb-101" value="Transportation" style="edgeStyle=orthogonalEdgeStyle;rounded=0;orthogonalLoop=1;jettySize=auto;html=1;startArrow=classic;startFill=1;" parent="1" edge="1">
          <mxGeometry relative="1" as="geometry">
            <mxPoint x="520" y="445" as="sourcePoint" />
            <mxPoint x="620" y="445" as="targetPoint" />
          </mxGeometry>
        </mxCell>
        <mxCell id="H2wxgID-5hjO3u1uiLOb-107" value="Dispatch" style="edgeStyle=orthogonalEdgeStyle;rounded=0;orthogonalLoop=1;jettySize=auto;html=1;exitX=1;exitY=0.75;exitDx=0;exitDy=0;" parent="1" source="H2wxgID-5hjO3u1uiLOb-111" edge="1">
          <mxGeometry relative="1" as="geometry">
            <mxPoint x="660" y="472.5" as="sourcePoint" />
            <mxPoint x="770" y="473" as="targetPoint" />
          </mxGeometry>
        </mxCell>
        <mxCell id="H2wxgID-5hjO3u1uiLOb-93" value="Load&amp;nbsp;&lt;br&gt;Container" style="rounded=0;whiteSpace=wrap;html=1;" parent="1" vertex="1">
          <mxGeometry x="780" y="412" width="70" height="60" as="geometry" />
        </mxCell>
        <mxCell id="H2wxgID-5hjO3u1uiLOb-94" value="Unload&amp;nbsp;&lt;br&gt;Container" style="rounded=0;whiteSpace=wrap;html=1;" parent="1" vertex="1">
          <mxGeometry x="870" y="412" width="70" height="60" as="geometry" />
        </mxCell>
        <mxCell id="H2wxgID-5hjO3u1uiLOb-97" style="edgeStyle=orthogonalEdgeStyle;rounded=0;orthogonalLoop=1;jettySize=auto;html=1;" parent="1" source="H2wxgID-5hjO3u1uiLOb-95" target="H2wxgID-5hjO3u1uiLOb-74" edge="1">
          <mxGeometry relative="1" as="geometry" />
        </mxCell>
        <mxCell id="H2wxgID-5hjO3u1uiLOb-117" value="Receive" style="edgeStyle=orthogonalEdgeStyle;rounded=0;orthogonalLoop=1;jettySize=auto;html=1;exitX=-0.004;exitY=0.249;exitDx=0;exitDy=0;exitPerimeter=0;entryX=1.013;entryY=0.227;entryDx=0;entryDy=0;entryPerimeter=0;" parent="1" source="H2wxgID-5hjO3u1uiLOb-95" target="H2wxgID-5hjO3u1uiLOb-111" edge="1">
          <mxGeometry relative="1" as="geometry" />
        </mxCell>
        <mxCell id="H2wxgID-5hjO3u1uiLOb-95" value="" style="rounded=0;whiteSpace=wrap;html=1;fillColor=none;dashed=1;dashPattern=8 8;" parent="1" vertex="1">
          <mxGeometry x="770" y="387" width="180" height="110" as="geometry" />
        </mxCell>
        <mxCell id="H2wxgID-5hjO3u1uiLOb-113" style="edgeStyle=orthogonalEdgeStyle;rounded=0;orthogonalLoop=1;jettySize=auto;html=1;startArrow=classic;startFill=1;" parent="1" source="H2wxgID-5hjO3u1uiLOb-109" target="H2wxgID-5hjO3u1uiLOb-112" edge="1">
          <mxGeometry relative="1" as="geometry" />
        </mxCell>
        <mxCell id="H2wxgID-5hjO3u1uiLOb-109" value="Truck" style="shape=process;whiteSpace=wrap;html=1;backgroundOutline=1;" parent="1" vertex="1">
          <mxGeometry x="470" y="390" width="50" height="110" as="geometry" />
        </mxCell>
        <mxCell id="H2wxgID-5hjO3u1uiLOb-114" style="edgeStyle=orthogonalEdgeStyle;rounded=0;orthogonalLoop=1;jettySize=auto;html=1;entryX=0.5;entryY=0;entryDx=0;entryDy=0;startArrow=classic;startFill=1;" parent="1" source="H2wxgID-5hjO3u1uiLOb-111" target="H2wxgID-5hjO3u1uiLOb-112" edge="1">
          <mxGeometry relative="1" as="geometry" />
        </mxCell>
        <mxCell id="H2wxgID-5hjO3u1uiLOb-111" value="Yard&lt;br&gt;Crane" style="shape=process;whiteSpace=wrap;html=1;backgroundOutline=1;" parent="1" vertex="1">
          <mxGeometry x="630" y="390" width="50" height="110" as="geometry" />
        </mxCell>
        <mxCell id="H2wxgID-5hjO3u1uiLOb-112" value="Container&amp;nbsp;&lt;br&gt;Reallocation&lt;br&gt;Between/Within&lt;br&gt;Yards" style="shape=hexagon;perimeter=hexagonPerimeter2;whiteSpace=wrap;html=1;fixedSize=1;" parent="1" vertex="1">
          <mxGeometry x="510" y="550" width="120" height="80" as="geometry" />
        </mxCell>
      </root>
    </mxGraphModel>
  </diagram>
  <diagram id="r5eGk4jFueT4xy_Yc7KE" name="SimpleLogic">
    <mxGraphModel dx="332" dy="193" grid="1" gridSize="10" guides="1" tooltips="1" connect="1" arrows="1" fold="1" page="1" pageScale="1" pageWidth="827" pageHeight="1169" math="0" shadow="0">
      <root>
        <mxCell id="0" />
        <mxCell id="1" parent="0" />
        <mxCell id="JNBsQCVeGkSk06g345No-1" value="" style="shape=image;verticalLabelPosition=bottom;verticalAlign=top;imageAspect=0;aspect=fixed;image=data:image/svg+xml,PHN2ZyB4bWxucz0iaHR0cDovL3d3dy53My5vcmcvMjAwMC9zdmciIHZlcnNpb249IjEuMSIgdmlld0JveD0iMCAwIDEwNzAgMTAyNCIgaGVpZ2h0PSIxOTEuNDBweCIgd2lkdGg9IjIwMHB4IiBjbGFzcz0iaWNvbiI+PHBhdGggZD0iTSA5ODUuOTgxIDg5MS42NzMgYSAyNjUuOTA0IDI2NS45MDQgMCAwIDAgLTEyMi4yODcgLTM2LjE4MSBsIDExMS42ODYgLTMwNC40MjcgYSAzMy43NTQ5IDMzLjc1NDkgMCAwIDAgLTE0Ljc2NzcgLTQwLjg2NDUgbCAtMTA4LjE0MyAtNjIuNDE0OSBsIC03Ljg1ODU2IC00LjUzNTgxIGwgOS45MjYwNiAtMTk0LjA5MSB2IC0xLjcyOTkzIEEgNjcuNDE0OSA2Ny40MTQ5IDAgMCAwIDc4Ny4yNDQgMTgwLjE0MiBoIC0zMi44NzkzIFYgMTI5Ljc3NCBBIDY3Ljg0NzMgNjcuODQ3MyAwIDAgMCA2ODYuNTkyIDYyIGggLTMwNS4zNzYgYSA2Ny44NDczIDY3Ljg0NzMgMCAwIDAgLTY3Ljc3MzUgNjcuNzczNSBWIDE4MC4xNDIgaCAtMzIuMTcyNyBhIDY4LjExMSA2OC4xMTEgMCAwIDAgLTY4LjAzNzIgNjguMDM3MiB2IDEuNzI5OTMgbCA5Ljg2Mjc4IDE5Mi4xNiBsIC05Ljg2Mjc4IDUuNzE3MjMgTCAxMDUuMTMzIDUxMC4yMDIgYSAzMy43NTQ5IDMzLjc1NDkgMCAwIDAgLTE0Ljc2NzcgNDAuODY0NSBsIDEyMy44MzggMzM3LjU0OSBhIDE5NS4zNDYgMTk1LjM0NiAwIDAgMSAtOTcuMDQ1MyAtNDIuMTkzNiBhIDMzLjc1NTkgMzMuNzU1OSAwIDAgMCAtNDIuNjY4MyA1Mi4zMjAxIGEgMjYyLjA2NCAyNjIuMDY0IDAgMCAwIDIzOC4yOTggNDguOTU1MSBjIDkuMDI5NDUgLTIuNjA1NDUgMTcuNzUzIC01LjIwMDM2IDI2LjE5MTcgLTcuNzEwODggYyA3Mi41NjI1IC0yMS42MTM3IDEyMC41MDUgLTM1Ljg2NDUgMTg5Ljg3MSAtNC42MjAyIGMgNDIuNzg0MyAxOS4yOTMxIDc5LjkzNTggMjYuNjAzMSAxMTUuMzA1IDI2LjYwMzEgYyA0Ny43MzE1IDAgOTIuMTkyOSAtMTMuMzMzMiAxNDIuNzUxIC0yOC40ODA3IGwgOC45MzQ1MiAtMi42NzkyOSBhIDE5Ny41ODIgMTk3LjU4MiAwIDAgMSAxNTYuMDMyIDE5LjA2MSBhIDMzLjc1NDkgMzMuNzU0OSAwIDAgMCAzNC4xNjYyIC01OC4yMjcyIFogTSAyODAuNzQyIDI0Ny45OSBhIDAuNTI3NDIxIDAuNTI3NDIxIDAgMCAxIDAuNDk1Nzc0IC0wLjMzNzU0OSBoIDMyLjIwNDMgYSA2Ny41ODM2IDY3LjU4MzYgMCAwIDAgNjcuNTA5OCAtNjcuNTA5OCBWIDEyOS42NzggYSAwLjM0ODA5NyAwLjM0ODA5NyAwIDAgMSAwLjI1MzE2MiAtMC4xNjg3NzMgaCAzMDUuNDgyIGEgMC4zNDgwOTcgMC4zNDgwOTcgMCAwIDEgMC4xNjg3NzQgMC4yNTMxNjEgViAxODAuMTQyIGEgNjcuNTgzNiA2Ny41ODM2IDAgMCAwIDY3LjUwOTggNjcuNTA5OCBoIDMyLjcwMDEgbCAtOC4wNTg5OCAxNTcuNjk5IEwgNTQ5LjcyNiAyNzIuOTY5IGEgMzMuNzU0OSAzMy43NTQ5IDAgMCAwIC0zMy43NTQ5IDAgTCAyODguNzkxIDQwNC4xNjkgWiBNIDMxOS42MzMgODc1LjI4MiBjIC04LjI5MTAzIDIuNDY4MzIgLTE2Ljg3NzQgNS4wMjEwMyAtMjUuNjExNSA3LjU0MjEgYyAtMy4wNDg0OSAwLjg3NTUxNyAtNi4xMTgwOCAxLjY1NjA5IC05LjE4NzY1IDIuMzgzOTQgbCAtMTIxLjMwNyAtMzMwLjc2NiBsIDgzLjQ1ODkgLTQ4LjE4NTEgbCAyNTQuMjE1IC0xNDYuNzkxIHYgNDk1Ljc3NSBjIC02NS42ODQ5IC0xNC40MzAzIC0xMjAuMzM3IDEuODM1NDIgLTE4MS41NjkgMjAuMDQyIFogbSA0NTYuODE5IC05LjE1NjAxIGwgLTguOTg3MjYgMi42ODk4MyBjIC03OC43MzMyIDIzLjU5NjggLTEyNy45MzEgMzguMzMyOSAtMTk4Ljc1MyAxMC4xNjg3IFYgMzYxLjkyMiBsIDI0OS45OTcgMTQ0LjMzNCBsIDgzLjUxMTcgNDguMjE2OSBMIDc4OS41NTUgODYxLjU2OSBjIC0wLjEzNzEzIDAuMzkwMjkxIC0wLjI2MzcwOSAwLjc4MDU4MSAtMC4zOTAyOTEgMS4xNzA4NyBxIC02LjM5MjMyIDEuNTI5NTEgLTEyLjcxMDggMy40MTc2OSBaIi8+PC9zdmc+" vertex="1" parent="1">
          <mxGeometry x="20" y="520" width="116.23" height="111" as="geometry" />
        </mxCell>
        <mxCell id="JNBsQCVeGkSk06g345No-37" value="" style="group" vertex="1" connectable="0" parent="1">
          <mxGeometry x="610" y="558" width="40" height="104" as="geometry" />
        </mxCell>
        <mxCell id="JNBsQCVeGkSk06g345No-38" value="" style="group" vertex="1" connectable="0" parent="JNBsQCVeGkSk06g345No-37">
          <mxGeometry x="0.5194805194805194" width="39.480519480519476" height="51.324675324675326" as="geometry" />
        </mxCell>
        <mxCell id="JNBsQCVeGkSk06g345No-39" value="" style="shape=image;verticalLabelPosition=bottom;verticalAlign=top;imageAspect=0;aspect=fixed;image=data:image/svg+xml,PHN2ZyB4bWxucz0iaHR0cDovL3d3dy53My5vcmcvMjAwMC9zdmciIHZlcnNpb249IjEuMSIgdmlld0JveD0iMCAwIDEwMjQgMTAyNCIgaGVpZ2h0PSIyMDAuMDBweCIgd2lkdGg9IjIwMHB4IiBjbGFzcz0iaWNvbiI+PHBhdGggZmlsbD0iIzI2MjYyNiIgZD0iTTgxNy4yMTYgMTM5Ljc4NEg2NTAuODMyYy02MS4yNDggMC0xMTAuOTEyIDQ5LjY2NC0xMTAuOTEyIDExMC45MTJ2NTU0LjZjMCA2MS4yNTYgNDkuNjY0IDExMC45MiAxMTAuOTEyIDExMC45MmgxNjYuMzg0YzYxLjI0OCAwIDExMC45MTItNDkuNjY0IDExMC45MTItMTEwLjkyVjI1MC42OTZjMC4wMDgtNjEuMjQ4LTQ5LjY1Ni0xMTAuOTEyLTExMC45MTItMTEwLjkxMnogbTU1LjQ1NiA2NjUuNTEyYTU1LjQ0IDU1LjQ0IDAgMCAxLTU1LjQ1NiA1NS40NzJINjUwLjgzMmE1NS40NDggNTUuNDQ4IDAgMCAxLTU1LjQ3Mi01NS40NzJWMjUwLjY5NmE1NS40NTYgNTUuNDU2IDAgMCAxIDU1LjQ3Mi01NS40NTZoMTY2LjM4NGE1NS40NCA1NS40NCAwIDAgMSA1NS40NTYgNTUuNDU2djU1NC42ek0zNzMuNTM2IDEzOS43ODRIMjA3LjE2Yy02MS4yNDggMC0xMTAuOTIgNDkuNjY0LTExMC45MiAxMTAuOTEydjU1NC42YzAgNjEuMjU2IDQ5LjY2NCAxMTAuOTIgMTEwLjkyIDExMC45MmgxNjYuMzg0YzYxLjI1NiAwIDExMC45MTItNDkuNjY0IDExMC45MTItMTEwLjkyVjI1MC42OTZjMC02MS4yNDgtNDkuNjY0LTExMC45MTItMTEwLjkyLTExMC45MTJ6IG01NS40NjQgNjY1LjUxMmE1NS40NCA1NS40NCAwIDAgMS01NS40NTYgNTUuNDcySDIwNy4xNmE1NS40NCA1NS40NCAwIDAgMS01NS40NjQtNTUuNDcyVjI1MC42OTZhNTUuNDQgNTUuNDQgMCAwIDEgNTUuNDY0LTU1LjQ1NmgxNjYuMzg0YTU1LjQ0IDU1LjQ0IDAgMCAxIDU1LjQ1NiA1NS40NTZ2NTU0LjZ6Ii8+PC9zdmc+" vertex="1" parent="JNBsQCVeGkSk06g345No-38">
          <mxGeometry width="14.805194805194805" height="14.805194805194805" as="geometry" />
        </mxCell>
        <mxCell id="JNBsQCVeGkSk06g345No-40" value="" style="shape=image;verticalLabelPosition=bottom;verticalAlign=top;imageAspect=0;aspect=fixed;image=data:image/svg+xml,PHN2ZyB4bWxucz0iaHR0cDovL3d3dy53My5vcmcvMjAwMC9zdmciIHZlcnNpb249IjEuMSIgdmlld0JveD0iMCAwIDEwMjQgMTAyNCIgaGVpZ2h0PSIyMDAuMDBweCIgd2lkdGg9IjIwMHB4IiBjbGFzcz0iaWNvbiI+PHBhdGggZmlsbD0iIzI2MjYyNiIgZD0iTTgxNy4yMTYgMTM5Ljc4NEg2NTAuODMyYy02MS4yNDggMC0xMTAuOTEyIDQ5LjY2NC0xMTAuOTEyIDExMC45MTJ2NTU0LjZjMCA2MS4yNTYgNDkuNjY0IDExMC45MiAxMTAuOTEyIDExMC45MmgxNjYuMzg0YzYxLjI0OCAwIDExMC45MTItNDkuNjY0IDExMC45MTItMTEwLjkyVjI1MC42OTZjMC4wMDgtNjEuMjQ4LTQ5LjY1Ni0xMTAuOTEyLTExMC45MTItMTEwLjkxMnogbTU1LjQ1NiA2NjUuNTEyYTU1LjQ0IDU1LjQ0IDAgMCAxLTU1LjQ1NiA1NS40NzJINjUwLjgzMmE1NS40NDggNTUuNDQ4IDAgMCAxLTU1LjQ3Mi01NS40NzJWMjUwLjY5NmE1NS40NTYgNTUuNDU2IDAgMCAxIDU1LjQ3Mi01NS40NTZoMTY2LjM4NGE1NS40NCA1NS40NCAwIDAgMSA1NS40NTYgNTUuNDU2djU1NC42ek0zNzMuNTM2IDEzOS43ODRIMjA3LjE2Yy02MS4yNDggMC0xMTAuOTIgNDkuNjY0LTExMC45MiAxMTAuOTEydjU1NC42YzAgNjEuMjU2IDQ5LjY2NCAxMTAuOTIgMTEwLjkyIDExMC45MmgxNjYuMzg0YzYxLjI1NiAwIDExMC45MTItNDkuNjY0IDExMC45MTItMTEwLjkyVjI1MC42OTZjMC02MS4yNDgtNDkuNjY0LTExMC45MTItMTEwLjkyLTExMC45MTJ6IG01NS40NjQgNjY1LjUxMmE1NS40NCA1NS40NCAwIDAgMS01NS40NTYgNTUuNDcySDIwNy4xNmE1NS40NCA1NS40NCAwIDAgMS01NS40NjQtNTUuNDcyVjI1MC42OTZhNTUuNDQgNTUuNDQgMCAwIDEgNTUuNDY0LTU1LjQ1NmgxNjYuMzg0YTU1LjQ0IDU1LjQ0IDAgMCAxIDU1LjQ1NiA1NS40NTZ2NTU0LjZ6Ii8+PC9zdmc+" vertex="1" parent="JNBsQCVeGkSk06g345No-38">
          <mxGeometry x="19.740259740259738" width="14.805194805194805" height="14.805194805194805" as="geometry" />
        </mxCell>
        <mxCell id="JNBsQCVeGkSk06g345No-41" value="" style="shape=image;verticalLabelPosition=bottom;verticalAlign=top;imageAspect=0;aspect=fixed;image=data:image/svg+xml,PHN2ZyB4bWxucz0iaHR0cDovL3d3dy53My5vcmcvMjAwMC9zdmciIHZlcnNpb249IjEuMSIgdmlld0JveD0iMCAwIDEwMjQgMTAyNCIgaGVpZ2h0PSIyMDAuMDBweCIgd2lkdGg9IjIwMHB4IiBjbGFzcz0iaWNvbiI+PHBhdGggZmlsbD0iIzI2MjYyNiIgZD0iTTgxNy4yMTYgMTM5Ljc4NEg2NTAuODMyYy02MS4yNDggMC0xMTAuOTEyIDQ5LjY2NC0xMTAuOTEyIDExMC45MTJ2NTU0LjZjMCA2MS4yNTYgNDkuNjY0IDExMC45MiAxMTAuOTEyIDExMC45MmgxNjYuMzg0YzYxLjI0OCAwIDExMC45MTItNDkuNjY0IDExMC45MTItMTEwLjkyVjI1MC42OTZjMC4wMDgtNjEuMjQ4LTQ5LjY1Ni0xMTAuOTEyLTExMC45MTItMTEwLjkxMnogbTU1LjQ1NiA2NjUuNTEyYTU1LjQ0IDU1LjQ0IDAgMCAxLTU1LjQ1NiA1NS40NzJINjUwLjgzMmE1NS40NDggNTUuNDQ4IDAgMCAxLTU1LjQ3Mi01NS40NzJWMjUwLjY5NmE1NS40NTYgNTUuNDU2IDAgMCAxIDU1LjQ3Mi01NS40NTZoMTY2LjM4NGE1NS40NCA1NS40NCAwIDAgMSA1NS40NTYgNTUuNDU2djU1NC42ek0zNzMuNTM2IDEzOS43ODRIMjA3LjE2Yy02MS4yNDggMC0xMTAuOTIgNDkuNjY0LTExMC45MiAxMTAuOTEydjU1NC42YzAgNjEuMjU2IDQ5LjY2NCAxMTAuOTIgMTEwLjkyIDExMC45MmgxNjYuMzg0YzYxLjI1NiAwIDExMC45MTItNDkuNjY0IDExMC45MTItMTEwLjkyVjI1MC42OTZjMC02MS4yNDgtNDkuNjY0LTExMC45MTItMTEwLjkyLTExMC45MTJ6IG01NS40NjQgNjY1LjUxMmE1NS40NCA1NS40NCAwIDAgMS01NS40NTYgNTUuNDcySDIwNy4xNmE1NS40NCA1NS40NCAwIDAgMS01NS40NjQtNTUuNDcyVjI1MC42OTZhNTUuNDQgNTUuNDQgMCAwIDEgNTUuNDY0LTU1LjQ1NmgxNjYuMzg0YTU1LjQ0IDU1LjQ0IDAgMCAxIDU1LjQ1NiA1NS40NTZ2NTU0LjZ6Ii8+PC9zdmc+" vertex="1" parent="JNBsQCVeGkSk06g345No-38">
          <mxGeometry x="19.740259740259738" y="25.662337662337663" width="14.805194805194805" height="14.805194805194805" as="geometry" />
        </mxCell>
        <mxCell id="JNBsQCVeGkSk06g345No-42" value="" style="shape=image;verticalLabelPosition=bottom;verticalAlign=top;imageAspect=0;aspect=fixed;image=data:image/svg+xml,PHN2ZyB4bWxucz0iaHR0cDovL3d3dy53My5vcmcvMjAwMC9zdmciIHZlcnNpb249IjEuMSIgdmlld0JveD0iMCAwIDEwMjQgMTAyNCIgaGVpZ2h0PSIyMDAuMDBweCIgd2lkdGg9IjIwMHB4IiBjbGFzcz0iaWNvbiI+PHBhdGggZmlsbD0iIzI2MjYyNiIgZD0iTTgxNy4yMTYgMTM5Ljc4NEg2NTAuODMyYy02MS4yNDggMC0xMTAuOTEyIDQ5LjY2NC0xMTAuOTEyIDExMC45MTJ2NTU0LjZjMCA2MS4yNTYgNDkuNjY0IDExMC45MiAxMTAuOTEyIDExMC45MmgxNjYuMzg0YzYxLjI0OCAwIDExMC45MTItNDkuNjY0IDExMC45MTItMTEwLjkyVjI1MC42OTZjMC4wMDgtNjEuMjQ4LTQ5LjY1Ni0xMTAuOTEyLTExMC45MTItMTEwLjkxMnogbTU1LjQ1NiA2NjUuNTEyYTU1LjQ0IDU1LjQ0IDAgMCAxLTU1LjQ1NiA1NS40NzJINjUwLjgzMmE1NS40NDggNTUuNDQ4IDAgMCAxLTU1LjQ3Mi01NS40NzJWMjUwLjY5NmE1NS40NTYgNTUuNDU2IDAgMCAxIDU1LjQ3Mi01NS40NTZoMTY2LjM4NGE1NS40NCA1NS40NCAwIDAgMSA1NS40NTYgNTUuNDU2djU1NC42ek0zNzMuNTM2IDEzOS43ODRIMjA3LjE2Yy02MS4yNDggMC0xMTAuOTIgNDkuNjY0LTExMC45MiAxMTAuOTEydjU1NC42YzAgNjEuMjU2IDQ5LjY2NCAxMTAuOTIgMTEwLjkyIDExMC45MmgxNjYuMzg0YzYxLjI1NiAwIDExMC45MTItNDkuNjY0IDExMC45MTItMTEwLjkyVjI1MC42OTZjMC02MS4yNDgtNDkuNjY0LTExMC45MTItMTEwLjkyLTExMC45MTJ6IG01NS40NjQgNjY1LjUxMmE1NS40NCA1NS40NCAwIDAgMS01NS40NTYgNTUuNDcySDIwNy4xNmE1NS40NCA1NS40NCAwIDAgMS01NS40NjQtNTUuNDcyVjI1MC42OTZhNTUuNDQgNTUuNDQgMCAwIDEgNTUuNDY0LTU1LjQ1NmgxNjYuMzg0YTU1LjQ0IDU1LjQ0IDAgMCAxIDU1LjQ1NiA1NS40NTZ2NTU0LjZ6Ii8+PC9zdmc+" vertex="1" parent="JNBsQCVeGkSk06g345No-38">
          <mxGeometry y="25.662337662337663" width="14.805194805194805" height="14.805194805194805" as="geometry" />
        </mxCell>
        <mxCell id="JNBsQCVeGkSk06g345No-43" value="" style="group" vertex="1" connectable="0" parent="JNBsQCVeGkSk06g345No-37">
          <mxGeometry y="52.675324675324674" width="39.480519480519476" height="51.324675324675326" as="geometry" />
        </mxCell>
        <mxCell id="JNBsQCVeGkSk06g345No-44" value="" style="shape=image;verticalLabelPosition=bottom;verticalAlign=top;imageAspect=0;aspect=fixed;image=data:image/svg+xml,PHN2ZyB4bWxucz0iaHR0cDovL3d3dy53My5vcmcvMjAwMC9zdmciIHZlcnNpb249IjEuMSIgdmlld0JveD0iMCAwIDEwMjQgMTAyNCIgaGVpZ2h0PSIyMDAuMDBweCIgd2lkdGg9IjIwMHB4IiBjbGFzcz0iaWNvbiI+PHBhdGggZmlsbD0iIzI2MjYyNiIgZD0iTTgxNy4yMTYgMTM5Ljc4NEg2NTAuODMyYy02MS4yNDggMC0xMTAuOTEyIDQ5LjY2NC0xMTAuOTEyIDExMC45MTJ2NTU0LjZjMCA2MS4yNTYgNDkuNjY0IDExMC45MiAxMTAuOTEyIDExMC45MmgxNjYuMzg0YzYxLjI0OCAwIDExMC45MTItNDkuNjY0IDExMC45MTItMTEwLjkyVjI1MC42OTZjMC4wMDgtNjEuMjQ4LTQ5LjY1Ni0xMTAuOTEyLTExMC45MTItMTEwLjkxMnogbTU1LjQ1NiA2NjUuNTEyYTU1LjQ0IDU1LjQ0IDAgMCAxLTU1LjQ1NiA1NS40NzJINjUwLjgzMmE1NS40NDggNTUuNDQ4IDAgMCAxLTU1LjQ3Mi01NS40NzJWMjUwLjY5NmE1NS40NTYgNTUuNDU2IDAgMCAxIDU1LjQ3Mi01NS40NTZoMTY2LjM4NGE1NS40NCA1NS40NCAwIDAgMSA1NS40NTYgNTUuNDU2djU1NC42ek0zNzMuNTM2IDEzOS43ODRIMjA3LjE2Yy02MS4yNDggMC0xMTAuOTIgNDkuNjY0LTExMC45MiAxMTAuOTEydjU1NC42YzAgNjEuMjU2IDQ5LjY2NCAxMTAuOTIgMTEwLjkyIDExMC45MmgxNjYuMzg0YzYxLjI1NiAwIDExMC45MTItNDkuNjY0IDExMC45MTItMTEwLjkyVjI1MC42OTZjMC02MS4yNDgtNDkuNjY0LTExMC45MTItMTEwLjkyLTExMC45MTJ6IG01NS40NjQgNjY1LjUxMmE1NS40NCA1NS40NCAwIDAgMS01NS40NTYgNTUuNDcySDIwNy4xNmE1NS40NCA1NS40NCAwIDAgMS01NS40NjQtNTUuNDcyVjI1MC42OTZhNTUuNDQgNTUuNDQgMCAwIDEgNTUuNDY0LTU1LjQ1NmgxNjYuMzg0YTU1LjQ0IDU1LjQ0IDAgMCAxIDU1LjQ1NiA1NS40NTZ2NTU0LjZ6Ii8+PC9zdmc+" vertex="1" parent="JNBsQCVeGkSk06g345No-43">
          <mxGeometry width="14.805194805194805" height="14.805194805194805" as="geometry" />
        </mxCell>
        <mxCell id="JNBsQCVeGkSk06g345No-45" value="" style="shape=image;verticalLabelPosition=bottom;verticalAlign=top;imageAspect=0;aspect=fixed;image=data:image/svg+xml,PHN2ZyB4bWxucz0iaHR0cDovL3d3dy53My5vcmcvMjAwMC9zdmciIHZlcnNpb249IjEuMSIgdmlld0JveD0iMCAwIDEwMjQgMTAyNCIgaGVpZ2h0PSIyMDAuMDBweCIgd2lkdGg9IjIwMHB4IiBjbGFzcz0iaWNvbiI+PHBhdGggZmlsbD0iIzI2MjYyNiIgZD0iTTgxNy4yMTYgMTM5Ljc4NEg2NTAuODMyYy02MS4yNDggMC0xMTAuOTEyIDQ5LjY2NC0xMTAuOTEyIDExMC45MTJ2NTU0LjZjMCA2MS4yNTYgNDkuNjY0IDExMC45MiAxMTAuOTEyIDExMC45MmgxNjYuMzg0YzYxLjI0OCAwIDExMC45MTItNDkuNjY0IDExMC45MTItMTEwLjkyVjI1MC42OTZjMC4wMDgtNjEuMjQ4LTQ5LjY1Ni0xMTAuOTEyLTExMC45MTItMTEwLjkxMnogbTU1LjQ1NiA2NjUuNTEyYTU1LjQ0IDU1LjQ0IDAgMCAxLTU1LjQ1NiA1NS40NzJINjUwLjgzMmE1NS40NDggNTUuNDQ4IDAgMCAxLTU1LjQ3Mi01NS40NzJWMjUwLjY5NmE1NS40NTYgNTUuNDU2IDAgMCAxIDU1LjQ3Mi01NS40NTZoMTY2LjM4NGE1NS40NCA1NS40NCAwIDAgMSA1NS40NTYgNTUuNDU2djU1NC42ek0zNzMuNTM2IDEzOS43ODRIMjA3LjE2Yy02MS4yNDggMC0xMTAuOTIgNDkuNjY0LTExMC45MiAxMTAuOTEydjU1NC42YzAgNjEuMjU2IDQ5LjY2NCAxMTAuOTIgMTEwLjkyIDExMC45MmgxNjYuMzg0YzYxLjI1NiAwIDExMC45MTItNDkuNjY0IDExMC45MTItMTEwLjkyVjI1MC42OTZjMC02MS4yNDgtNDkuNjY0LTExMC45MTItMTEwLjkyLTExMC45MTJ6IG01NS40NjQgNjY1LjUxMmE1NS40NCA1NS40NCAwIDAgMS01NS40NTYgNTUuNDcySDIwNy4xNmE1NS40NCA1NS40NCAwIDAgMS01NS40NjQtNTUuNDcyVjI1MC42OTZhNTUuNDQgNTUuNDQgMCAwIDEgNTUuNDY0LTU1LjQ1NmgxNjYuMzg0YTU1LjQ0IDU1LjQ0IDAgMCAxIDU1LjQ1NiA1NS40NTZ2NTU0LjZ6Ii8+PC9zdmc+" vertex="1" parent="JNBsQCVeGkSk06g345No-43">
          <mxGeometry x="19.740259740259738" width="14.805194805194805" height="14.805194805194805" as="geometry" />
        </mxCell>
        <mxCell id="JNBsQCVeGkSk06g345No-46" value="" style="shape=image;verticalLabelPosition=bottom;verticalAlign=top;imageAspect=0;aspect=fixed;image=data:image/svg+xml,PHN2ZyB4bWxucz0iaHR0cDovL3d3dy53My5vcmcvMjAwMC9zdmciIHZlcnNpb249IjEuMSIgdmlld0JveD0iMCAwIDEwMjQgMTAyNCIgaGVpZ2h0PSIyMDAuMDBweCIgd2lkdGg9IjIwMHB4IiBjbGFzcz0iaWNvbiI+PHBhdGggZmlsbD0iIzI2MjYyNiIgZD0iTTgxNy4yMTYgMTM5Ljc4NEg2NTAuODMyYy02MS4yNDggMC0xMTAuOTEyIDQ5LjY2NC0xMTAuOTEyIDExMC45MTJ2NTU0LjZjMCA2MS4yNTYgNDkuNjY0IDExMC45MiAxMTAuOTEyIDExMC45MmgxNjYuMzg0YzYxLjI0OCAwIDExMC45MTItNDkuNjY0IDExMC45MTItMTEwLjkyVjI1MC42OTZjMC4wMDgtNjEuMjQ4LTQ5LjY1Ni0xMTAuOTEyLTExMC45MTItMTEwLjkxMnogbTU1LjQ1NiA2NjUuNTEyYTU1LjQ0IDU1LjQ0IDAgMCAxLTU1LjQ1NiA1NS40NzJINjUwLjgzMmE1NS40NDggNTUuNDQ4IDAgMCAxLTU1LjQ3Mi01NS40NzJWMjUwLjY5NmE1NS40NTYgNTUuNDU2IDAgMCAxIDU1LjQ3Mi01NS40NTZoMTY2LjM4NGE1NS40NCA1NS40NCAwIDAgMSA1NS40NTYgNTUuNDU2djU1NC42ek0zNzMuNTM2IDEzOS43ODRIMjA3LjE2Yy02MS4yNDggMC0xMTAuOTIgNDkuNjY0LTExMC45MiAxMTAuOTEydjU1NC42YzAgNjEuMjU2IDQ5LjY2NCAxMTAuOTIgMTEwLjkyIDExMC45MmgxNjYuMzg0YzYxLjI1NiAwIDExMC45MTItNDkuNjY0IDExMC45MTItMTEwLjkyVjI1MC42OTZjMC02MS4yNDgtNDkuNjY0LTExMC45MTItMTEwLjkyLTExMC45MTJ6IG01NS40NjQgNjY1LjUxMmE1NS40NCA1NS40NCAwIDAgMS01NS40NTYgNTUuNDcySDIwNy4xNmE1NS40NCA1NS40NCAwIDAgMS01NS40NjQtNTUuNDcyVjI1MC42OTZhNTUuNDQgNTUuNDQgMCAwIDEgNTUuNDY0LTU1LjQ1NmgxNjYuMzg0YTU1LjQ0IDU1LjQ0IDAgMCAxIDU1LjQ1NiA1NS40NTZ2NTU0LjZ6Ii8+PC9zdmc+" vertex="1" parent="JNBsQCVeGkSk06g345No-43">
          <mxGeometry x="19.740259740259738" y="25.662337662337663" width="14.805194805194805" height="14.805194805194805" as="geometry" />
        </mxCell>
        <mxCell id="JNBsQCVeGkSk06g345No-47" value="" style="shape=image;verticalLabelPosition=bottom;verticalAlign=top;imageAspect=0;aspect=fixed;image=data:image/svg+xml,PHN2ZyB4bWxucz0iaHR0cDovL3d3dy53My5vcmcvMjAwMC9zdmciIHZlcnNpb249IjEuMSIgdmlld0JveD0iMCAwIDEwMjQgMTAyNCIgaGVpZ2h0PSIyMDAuMDBweCIgd2lkdGg9IjIwMHB4IiBjbGFzcz0iaWNvbiI+PHBhdGggZmlsbD0iIzI2MjYyNiIgZD0iTTgxNy4yMTYgMTM5Ljc4NEg2NTAuODMyYy02MS4yNDggMC0xMTAuOTEyIDQ5LjY2NC0xMTAuOTEyIDExMC45MTJ2NTU0LjZjMCA2MS4yNTYgNDkuNjY0IDExMC45MiAxMTAuOTEyIDExMC45MmgxNjYuMzg0YzYxLjI0OCAwIDExMC45MTItNDkuNjY0IDExMC45MTItMTEwLjkyVjI1MC42OTZjMC4wMDgtNjEuMjQ4LTQ5LjY1Ni0xMTAuOTEyLTExMC45MTItMTEwLjkxMnogbTU1LjQ1NiA2NjUuNTEyYTU1LjQ0IDU1LjQ0IDAgMCAxLTU1LjQ1NiA1NS40NzJINjUwLjgzMmE1NS40NDggNTUuNDQ4IDAgMCAxLTU1LjQ3Mi01NS40NzJWMjUwLjY5NmE1NS40NTYgNTUuNDU2IDAgMCAxIDU1LjQ3Mi01NS40NTZoMTY2LjM4NGE1NS40NCA1NS40NCAwIDAgMSA1NS40NTYgNTUuNDU2djU1NC42ek0zNzMuNTM2IDEzOS43ODRIMjA3LjE2Yy02MS4yNDggMC0xMTAuOTIgNDkuNjY0LTExMC45MiAxMTAuOTEydjU1NC42YzAgNjEuMjU2IDQ5LjY2NCAxMTAuOTIgMTEwLjkyIDExMC45MmgxNjYuMzg0YzYxLjI1NiAwIDExMC45MTItNDkuNjY0IDExMC45MTItMTEwLjkyVjI1MC42OTZjMC02MS4yNDgtNDkuNjY0LTExMC45MTItMTEwLjkyLTExMC45MTJ6IG01NS40NjQgNjY1LjUxMmE1NS40NCA1NS40NCAwIDAgMS01NS40NTYgNTUuNDcySDIwNy4xNmE1NS40NCA1NS40NCAwIDAgMS01NS40NjQtNTUuNDcyVjI1MC42OTZhNTUuNDQgNTUuNDQgMCAwIDEgNTUuNDY0LTU1LjQ1NmgxNjYuMzg0YTU1LjQ0IDU1LjQ0IDAgMCAxIDU1LjQ1NiA1NS40NTZ2NTU0LjZ6Ii8+PC9zdmc+" vertex="1" parent="JNBsQCVeGkSk06g345No-43">
          <mxGeometry y="25.662337662337663" width="14.805194805194805" height="14.805194805194805" as="geometry" />
        </mxCell>
        <mxCell id="JNBsQCVeGkSk06g345No-61" value="" style="shape=flexArrow;endArrow=classic;startArrow=classic;html=1;rounded=0;endWidth=11.923076923076923;endSize=7.123076923076923;width=5.1923076923076925;startWidth=11.923076923076923;startSize=6.209615384615384;" edge="1" parent="1">
          <mxGeometry width="100" height="100" relative="1" as="geometry">
            <mxPoint x="160" y="600" as="sourcePoint" />
            <mxPoint x="230" y="600" as="targetPoint" />
          </mxGeometry>
        </mxCell>
        <mxCell id="JNBsQCVeGkSk06g345No-62" value="" style="shape=image;verticalLabelPosition=bottom;verticalAlign=top;imageAspect=0;aspect=fixed;image=data:image/svg+xml,PHN2ZyB4bWxucz0iaHR0cDovL3d3dy53My5vcmcvMjAwMC9zdmciIHZlcnNpb249IjEuMSIgdmlld0JveD0iMCAwIDEwMjQgMTAyNCIgaGVpZ2h0PSIyMDAuMDBweCIgd2lkdGg9IjIwMHB4IiBjbGFzcz0iaWNvbiI+PHBhdGggZmlsbD0iIzQxNTE2MiIgZD0iTTk0OS4yNDggMzkzLjcyOEw4OTMuOTUyIDE1OC43MmMtMi4wNDgtOC43MDQtOS43MjgtMTQuODQ4LTE4Ljk0NC0xNC44NDhIMTQ5LjUwNGMtOS4yMTYgMC0xNi44OTYgNi4xNDQtMTguOTQ0IDE1LjM2TDc0Ljc1MiAzOTMuNzI4Yy0zLjA3MiAxMi4yODggNi4xNDQgMjMuNTUyIDE4Ljk0NCAyMy41NTJoNTEuNzEybDE2LjM4NCAzOS40MjRjMi41NiA1LjYzMiA4LjE5MiA5LjIxNiAxNC4zMzYgOS4yMTZoNy42OHYzNjguMTI4SDE2MS4yOGMtMTIuMjg4IDAtMjIuNTI4IDEwLjI0LTIyLjUyOCAyMi41MjggMCAxMi4yODggMTAuMjQgMjIuNTI4IDIyLjUyOCAyMi41MjhoOTguODE2YzEyLjI4OCAwIDIyLjUyOC0xMC4yNCAyMi41MjgtMjIuNTI4IDAtMTIuMjg4LTEwLjI0LTIyLjUyOC0yMi41MjgtMjIuNTI4aC0yMy4wNFY0NjUuOTJoNy42OGM2LjE0NCAwIDExLjc3Ni0zLjU4NCAxNC4zMzYtOS4yMTZsMTYuMzg0LTM5LjQyNGgyMjcuODR2MTM1LjE2OGgtMTUuMzZjLTguMTkyIDAtMTQuMzM2IDYuNjU2LTE0LjMzNiAxNC4zMzZ2MTUuMzZjMCA4LjE5MiA2LjY1NiAxNC4zMzYgMTQuMzM2IDE0LjMzNmgxNS4zNnY0Ny42MTZjLTI1LjA4OCA3LjY4LTQ1LjA1NiAyNy4xMzYtNTMuNzYgNTMuNzYtMi4wNDggNi42NTYtMy4wNzIgMTMuMzEyLTMuNTg0IDE5Ljk2OC0xLjUzNiA1Ni4zMiA0OS4xNTIgOTUuMjMyIDEwMC4zNTIgODIuOTQ0IDMzLjI4LTcuNjggNTguMzY4LTM1Ljg0IDYyLjQ2NC03MC4xNDQgMC41MTItMy41ODQtMC41MTItNy42OC0zLjA3Mi0xMC43NTItMi41Ni0zLjA3Mi01LjYzMi01LjEyLTkuNzI4LTUuNjMyaC0xOC40MzJjLTcuMTY4IDAtMTIuOCA1LjEyLTEzLjgyNCAxMS43NzYtMy41ODQgMTguNDMyLTE5LjQ1NiAzMS43NDQtMzcuODg4IDMyLjI1Ni05LjcyOCAwLjUxMi0xOS40NTYtMy41ODQtMjYuNjI0LTEwLjI0LTcuMTY4LTYuNjU2LTExLjI2NC0xNS44NzItMTEuNzc2LTI2LjExMi0wLjUxMi0xMi4yODggNS4xMi0yMy41NTIgMTUuODcyLTMxLjIzMiA2LjE0NC00LjA5NiAxMy4zMTItNi42NTYgMjAuNDgtNi42NTZoMTAuMjRjOC4xOTIgMCAxNC4zMzYtNi42NTYgMTQuMzM2LTE0LjMzNnYtNzQuMjRoMTUuMzZjOC4xOTIgMCAxNC4zMzYtNi42NTYgMTQuMzM2LTE0LjMzNnYtMTUuMzZjMC04LjE5Mi02LjY1Ni0xNC4zMzYtMTQuMzM2LTE0LjMzNmgtMTUuMzZWNDE3LjI4aDIwMC43MDRsMTYuMzg0IDM5LjQyNGMyLjU2IDUuNjMyIDguMTkyIDkuMjE2IDE0LjMzNiA5LjIxNmg3LjY4djM3MC4xNzZoLTIzLjA0Yy0xMi4yODggMC0yMi41MjggMTAuMjQtMjIuNTI4IDIyLjUyOCAwIDEyLjI4OCAxMC4yNCAyMi41MjggMjIuNTI4IDIyLjUyOGg5OC44MTZjMTIuMjg4IDAgMjIuNTI4LTEwLjI0IDIyLjUyOC0yMi41MjggMC0xMi4yODgtMTAuMjQtMjIuNTI4LTIyLjUyOC0yMi41MjhoLTIzLjA0VjQ2NS45Mmg3LjY4YzYuMTQ0IDAgMTEuNzc2LTMuNTg0IDE0LjMzNi05LjIxNmwxNi4zODQtMzkuNDI0aDUxLjcxMmMxMi4yODggMCAyMS41MDQtMTEuNzc2IDE4Ljk0NC0yMy41NTJ6IG0tNzM4LjgxNi00My41MmgtNTMuNzZjLTcuNjggMC0xMy4zMTItNy4xNjgtMTEuMjY0LTE0LjMzNkwxNzQuNTkyIDIzMC40YzMuMDcyLTExLjI2NCAxOS40NTYtMTEuMjY0IDIyLjUyOCAwLjUxMmwyNC4wNjQgMTA1LjQ3MmMyLjA0OCA3LjE2OC0zLjU4NCAxMy44MjQtMTAuNzUyIDEzLjgyNHpNMzMxLjI2NCAyMzUuNTJMMzA3LjIgMzQxLjUwNGMtMi41NiAxMS43NzYtMTguOTQ0IDExLjc3Ni0yMi41MjggMC41MTJMMjU2IDIzNi4wMzJjLTIuMDQ4LTcuMTY4IDMuNTg0LTE0LjMzNiAxMS4yNjQtMTQuMzM2aDUzLjI0OGM3LjE2OCAwIDEyLjggNi42NTYgMTAuNzUyIDEzLjgyNHogbTk4LjgxNiAxMTQuNjg4aC01My4yNDhjLTcuNjggMC0xMy4zMTItNy4xNjgtMTEuMjY0LTE0LjMzNkwzOTQuNzUyIDIzMC40YzMuMDcyLTExLjI2NCAxOS40NTYtMTEuMjY0IDIyLjUyOCAwLjUxMmwyNC4wNjQgMTA1LjQ3MmMxLjUzNiA3LjE2OC0zLjU4NCAxMy44MjQtMTEuMjY0IDEzLjgyNHpNNTUxLjQyNCAyMzUuNTJMNTI3LjM2IDM0MS41MDRjLTIuNTYgMTEuNzc2LTE4Ljk0NCAxMS43NzYtMjIuNTI4IDAuNTEybC0yOS4xODQtMTA1Ljk4NGMtMi4wNDgtNy4xNjggMy41ODQtMTQuMzM2IDExLjI2NC0xNC4zMzZoNTMuMjQ4YzcuNjggMCAxMi44IDYuNjU2IDExLjI2NCAxMy44MjR6IG05OC44MTYgMTE0LjY4OGgtNTMuMjQ4Yy03LjY4IDAtMTMuMzEyLTcuMTY4LTExLjI2NC0xNC4zMzZsMjkuMTg0LTEwNS45ODRjMy4wNzItMTEuMjY0IDE5LjQ1Ni0xMS4yNjQgMjIuNTI4IDAuNTEybDI0LjA2NCAxMDUuOTg0YzEuNTM2IDcuMTY4LTQuMDk2IDEzLjgyNC0xMS4yNjQgMTMuODI0ek03NzEuNTg0IDIzNS41Mkw3NDcuNTIgMzQxLjUwNGMtMi41NiAxMS43NzYtMTguOTQ0IDExLjc3Ni0yMi41MjggMC41MTJsLTI5LjE4NC0xMDUuOTg0Yy0yLjA0OC03LjE2OCAzLjU4NC0xNC4zMzYgMTEuMjY0LTE0LjMzNmg1My4yNDhjNy4xNjggMCAxMi44IDYuNjU2IDExLjI2NCAxMy44MjR6TTg3MC40IDM1MC4yMDhoLTUzLjI0OGMtNy42OCAwLTEzLjMxMi03LjE2OC0xMS4yNjQtMTQuMzM2TDgzNS4wNzIgMjMwLjRjMy4wNzItMTEuMjY0IDE5LjQ1Ni0xMS4yNjQgMjIuNTI4IDAuNTEybDI0LjA2NCAxMDUuNDcyYzEuNTM2IDcuMTY4LTQuMDk2IDEzLjgyNC0xMS4yNjQgMTMuODI0eiIvPjwvc3ZnPg==;imageBackground=#FFFFFF;" vertex="1" parent="1">
          <mxGeometry x="600" y="508" width="50" height="50" as="geometry" />
        </mxCell>
        <mxCell id="JNBsQCVeGkSk06g345No-63" value="" style="shape=image;verticalLabelPosition=bottom;verticalAlign=top;imageAspect=0;aspect=fixed;image=data:image/svg+xml,PHN2ZyB4bWxucz0iaHR0cDovL3d3dy53My5vcmcvMjAwMC9zdmciIHZlcnNpb249IjEuMSIgdmlld0JveD0iMCAwIDE0NDIgMTAyNCIgaGVpZ2h0PSIxNDIuMDJweCIgd2lkdGg9IjIwMHB4IiBjbGFzcz0iaWNvbiI+PHBhdGggZD0iTTk2NC4xMDQyOTkgNjIyLjc3MDk2NWgtODIuOTg4MDJ2LTEwLjgyNDUyNGMwLTIuMTY0OTA1IDEuNDQzMjctMy42MDgxNzUgMy42MDgxNzUtMy42MDgxNzVoNzUuNzcxNjdjMi4xNjQ5MDUgMCAzLjYwODE3NSAxLjQ0MzI3IDMuNjA4MTc1IDMuNjA4MTc1djEwLjgyNDUyNHpNOTg3LjkxODI1MiA2NDYuNTg0OTE5aC00LjMyOTgwOWMtMC43MjE2MzUgMC0yLjE2NDkwNS0wLjcyMTYzNS0yLjE2NDkwNS0yLjE2NDkwNXYtNS43NzMwOGMwLTAuNzIxNjM1LTAuNzIxNjM1LTIuMTY0OTA1LTIuMTY0OTA1LTIuMTY0OTA0SDg2NS45NjE5NDVjLTAuNzIxNjM1IDAtMi4xNjQ5MDUgMC43MjE2MzUtMi4xNjQ5MDUgMi4xNjQ5MDR2NS43NzMwOGMwIDAuNzIxNjM1LTAuNzIxNjM1IDIuMTY0OTA1LTIuMTY0OTA1IDIuMTY0OTA1aC00LjMyOTgwOWMtMC43MjE2MzUgMC0yLjE2NDkwNS0wLjcyMTYzNS0yLjE2NDkwNS0yLjE2NDkwNXYtMTguMDQwODc0YzAtMi4xNjQ5MDUgMS40NDMyNy0zLjYwODE3NSAzLjYwODE3NC0zLjYwODE3NWgxMjcuMDA3NzUyYzIuMTY0OTA1IDAgMy42MDgxNzUgMS40NDMyNyAzLjYwODE3NSAzLjYwODE3NXYxOC4wNDA4NzRjMC43MjE2MzUgMS40NDMyNyAwIDIuMTY0OTA1LTEuNDQzMjcgMi4xNjQ5MDV6TTk0OC45NDk5NjUgNDA0LjgzNzIwOWg1Ljc3MzA3OXYyMDQuOTQ0MzI3aC01Ljc3MzA3OXpNODkxLjIxOTE2OCA0MDQuODM3MjA5aDUuNzczMDh2MjA0Ljk0NDMyN2gtNS43NzMwOHpNMTQzOC4yMTg0NjQgNDE3LjgyNjYzOGwtMzcuNTI1MDE4LTI1LjI1NzIyM2MtMi4xNjQ5MDUtMS40NDMyNy0zLjYwODE3NS0yLjE2NDkwNS01Ljc3MzA4LTIuMTY0OTA1aC0xOTUuNTYzMDcyYy0yLjE2NDkwNSAwLTQuMzI5ODEtMC43MjE2MzUtNi40OTQ3MTUtMi4xNjQ5MDVMNzA3LjIwMjI1NSAyNS4yNTcyMjN2LTUuMDUxNDQ0QzcwNy4yMDIyNTUgOS4zODEyNTQgNjk5LjI2NDI3MSAwIDY4OS44ODMwMTYgMGMtMTAuMTAyODg5IDAtMTguMDQwODc0IDkuMzgxMjU0LTE4LjA0MDg3NCAyMC4yMDU3Nzl2Mi44ODY1NEw1Ny43MzA3OTYgMzg5LjY4Mjg3NWMtMS40NDMyNyAwLjcyMTYzNS0zLjYwODE3NSAxLjQ0MzI3LTUuNzczMDc5IDEuNDQzMjdIMzMuOTE2ODQzYy0xLjQ0MzI3IDAtMi44ODY1NCAwLjcyMTYzNS0zLjYwODE3NSAxLjQ0MzI3TDAgNDIyLjg3ODA4M3YyMC45Mjc0MTRjMCAyLjg4NjU0IDIuMTY0OTA1IDUuNzczMDggNS43NzMwOCA1Ljc3MzA3OWgyNTEuMTI4OTY0YzUuNzczMDggMCAxMC44MjQ1MjQgNS4wNTE0NDUgMTAuODI0NTI0IDEwLjgyNDUyNVYxMDEzLjE3NTQ3NmMwIDUuNzczMDggNS4wNTE0NDUgMTAuODI0NTI0IDEwLjgyNDUyNCAxMC44MjQ1MjRIMzE3LjUxOTM4YzUuNzczMDggMCAxMC44MjQ1MjQtNS4wNTE0NDUgMTAuODI0NTI0LTEwLjgyNDUyNHYtMTc4LjI0MzgzNGMwLTE4LjA0MDg3NCAxNC40MzI2OTktMzIuNDczNTczIDMyLjQ3MzU3My0zMi40NzM1NzNoMjY3LjAwNDkzM2MxOC4wNDA4NzQgMCAzMi40NzM1NzMgMTQuNDMyNjk5IDMyLjQ3MzU3MyAzMi40NzM1NzN2MTc4LjI0MzgzNGMwIDUuNzczMDggNS4wNTE0NDUgMTAuODI0NTI0IDEwLjgyNDUyNCAxMC44MjQ1MjRoMzguOTY4Mjg4YzUuNzczMDggMCAxMC44MjQ1MjQtNS4wNTE0NDUgMTAuODI0NTI0LTEwLjgyNDUyNFY0NTkuNjgxNDY2YzAtNS43NzMwOCA1LjA1MTQ0NS0xMC44MjQ1MjQgMTAuODI0NTI1LTEwLjgyNDUyNGg2OTkuOTg1OTA1YzUuNzczMDggMCAxMC44MjQ1MjQtNS4wNTE0NDUgMTAuODI0NTI0LTEwLjgyNDUyNXYtMTAuODI0NTI0YzAuNzIxNjM1LTMuNjA4MTc1LTEuNDQzMjctNy4yMTYzNS00LjMyOTgwOS05LjM4MTI1NXpNMzQ0Ljk0MTUwOCAzOTEuMTI2MTQ1Yy01LjA1MTQ0NSAwLTcuMjE2MzUtNS43NzMwOC0zLjYwODE3NS05LjM4MTI1NEw2NzEuODQyMTQyIDUxLjk1NzcxN3YzMjguMzQzOTA0YzAgNS43NzMwOC01LjA1MTQ0NSAxMC44MjQ1MjQtMTAuODI0NTI0IDEwLjgyNDUyNEgzNDQuOTQxNTA4eiBtODEzLjI4MjU5MyAwaC0xMjIuNjc3OTQyYy0yLjg4NjU0IDAtNS43NzMwOC0xLjQ0MzI3LTcuOTM3OTg0LTMuNjA4MTc1TDc1MC41MDAzNTIgNzguNjU4MjFsNDA5LjE2NzAxOSAzMDYuNjk0ODU2YzIuODg2NTQgMS40NDMyNyAxLjQ0MzI3IDUuNzczMDgtMS40NDMyNyA1Ljc3MzA3OXpNNjM3LjIwMzY2NSA2My41MDM4NzZMMzE0LjYzMjg0IDM4NC42MzE0MzF2LTYyLjA2MDYwNmwtMjcuNDIyMTI4LTEwLjEwMjg5LTI3LjQyMjEyOC0xMC44MjQ1MjQtMjguMTQzNzY0IDEwLjgyNDUyNC0yNy40MjIxMjggMTAuMTAyODl2NjguNTU1MzJIOTguODYzOTg5Yy0zLjYwODE3NSAwLTQuMzI5ODEtNC4zMjk4MS0xLjQ0MzI3LTUuNzczMDc5TDYzNy4yMDM2NjUgNjMuNTAzODc2ek02MjcuODIyNDEgNDU0LjYzMDAyMUwzMzMuMzk1MzQ5IDY5Ni4zNzc3MzFjLTIuMTY0OTA1IDEuNDQzMjctNS4wNTE0NDUgMC01LjA1MTQ0NS0yLjg4NjU0VjQ1OS42ODE0NjZjMC01Ljc3MzA4IDUuMDUxNDQ1LTEwLjgyNDUyNCAxMC44MjQ1MjQtMTAuODI0NTI0aDI4Ni40ODkwNzdjMi44ODY1NCAwIDQuMzI5ODEgMy42MDgxNzUgMi4xNjQ5MDUgNS43NzMwNzl6TTM2MS41MzkxMTIgNzE1Ljg2MTg3NWwyOTMuNzA1NDI2LTI0MS4wMjYwNzVjMi4xNjQ5MDUtMS40NDMyNyA1LjA1MTQ0NSAwIDUuMDUxNDQ1IDIuODg2NTR2MjExLjQzOTA0MWMwIDE4LjA0MDg3NC0xNC40MzI2OTkgMzIuNDczNTczLTMyLjQ3MzU3MyAzMi40NzM1NzNIMzYyLjk4MjM4MmMtMi44ODY1NCAwLTQuMzI5ODEtMy42MDgxNzUtMS40NDMyNy01Ljc3MzA3OXpNNzA3LjIwMjI1NSAzODAuMzAxNjIxVjU0Ljg0NDI1N2wyOTUuODcwMzMxIDMzMS4yMzA0NDNjMi4xNjQ5MDUgMi4xNjQ5MDUgMC43MjE2MzUgNS43NzMwOC0yLjE2NDkwNSA1Ljc3MzA4SDcxOC43NDg0MTRjLTYuNDk0NzE1LTAuNzIxNjM1LTExLjU0NjE1OS01Ljc3MzA4LTExLjU0NjE1OS0xMS41NDYxNTl6Ii8+PC9zdmc+;flipH=1;" vertex="1" parent="1">
          <mxGeometry x="210" y="520" width="142.25" height="101" as="geometry" />
        </mxCell>
        <mxCell id="JNBsQCVeGkSk06g345No-75" value="" style="shape=flexArrow;endArrow=classic;startArrow=classic;html=1;rounded=0;endWidth=11.923076923076923;endSize=7.123076923076923;width=5.1923076923076925;startWidth=11.923076923076923;startSize=6.209615384615384;" edge="1" parent="1">
          <mxGeometry width="100" height="100" relative="1" as="geometry">
            <mxPoint x="360" y="600" as="sourcePoint" />
            <mxPoint x="430" y="600" as="targetPoint" />
          </mxGeometry>
        </mxCell>
        <mxCell id="JNBsQCVeGkSk06g345No-76" value="" style="shape=image;verticalLabelPosition=bottom;verticalAlign=top;imageAspect=0;aspect=fixed;image=data:image/svg+xml,PHN2ZyB4bWxucz0iaHR0cDovL3d3dy53My5vcmcvMjAwMC9zdmciIHZlcnNpb249IjEuMSIgdmlld0JveD0iMCAwIDEwMjQgMTAyNCIgaGVpZ2h0PSIyMDAuMDBweCIgd2lkdGg9IjIwMHB4IiBjbGFzcz0iaWNvbiI+PHBhdGggZmlsbD0iIzA0MDAwMCIgZD0iTTY2NS42IDU5My45NTJtLTM4LjQzMiAwYTM4LjQzMiAzOC40MzIgMCAxIDAgNzYuODY0IDAgMzguNDMyIDM4LjQzMiAwIDEgMC03Ni44NjQgMFoiLz48cGF0aCBmaWxsPSIjMDQwMDAwIiBkPSJNMzU4LjgxNiA1OTMuOTUybS0zOC40MzIgMGEzOC40MzIgMzguNDMyIDAgMSAwIDc2Ljg2NCAwIDM4LjQzMiAzOC40MzIgMCAxIDAtNzYuODY0IDBaIi8+PHBhdGggZmlsbD0iIzA0MDAwMCIgZD0iTTMzNC42ODggNTQ1Ljg4OEgyNTUuODA4djM3Ljc2YzAgNS42NjQgNC41NzYgMTAuMjQgMTAuMjQgMTAuMjRoMzguOTQ0YzAtMjAuODk2IDEyLjEyOC0zOS4xMDQgMjkuNjk2LTQ4ek03NjIuOTQ0IDUxOS42OGwtNjMuODQtMTA1LjE4NGEyMC4yMjQgMjAuMjI0IDAgMCAwLTE1LjU4NC04LjczNmgtNjguODY0YTEwLjI0IDEwLjI0IDAgMCAwLTEwLjI0IDEwLjI0djEyOS45MmgtMjIxLjUzNmMxNy41NjggOC44MzIgMjkuNjk2IDI3LjA0IDI5LjY5NiA0OGgxOTkuMmE1My44MjQgNTMuODI0IDAgMCAxIDEwNy41ODQgMGgzOC41MjhhMTAuMjQgMTAuMjQgMCAwIDAgMTAuMjQtMTAuMjR2LTQ0Ljk2YTQyLjI3MiA0Mi4yNzIgMCAwIDAtNS4xODQtMTkuMDR6IG0tNDQtMjUuMDg4bC04OS4wMjQtOS45ODRhNS44ODggNS44ODggMCAwIDEtNS4wODgtNS42OTZ2LTQ3LjUyYzAtMi44MTYgMi4zMDQtNS4xNTIgNS4xNTItNS4xNTJoNDcuMTM2YzIuODE2IDAgNi4zMzYgMS45NTIgNy44MDggNC4zODRsMzYuNDggNjAuMTI4YzEuNDQgMi40MzIgMC4zMiA0LjE2LTIuNDY0IDMuODR6Ii8+PC9zdmc+" vertex="1" parent="1">
          <mxGeometry x="410" y="530" width="126" height="126" as="geometry" />
        </mxCell>
        <mxCell id="JNBsQCVeGkSk06g345No-77" value="" style="shape=flexArrow;endArrow=classic;startArrow=classic;html=1;rounded=0;endWidth=11.923076923076923;endSize=7.123076923076923;width=5.1923076923076925;startWidth=11.923076923076923;startSize=6.209615384615384;" edge="1" parent="1">
          <mxGeometry width="100" height="100" relative="1" as="geometry">
            <mxPoint x="520" y="600" as="sourcePoint" />
            <mxPoint x="590" y="600" as="targetPoint" />
          </mxGeometry>
        </mxCell>
        <mxCell id="JNBsQCVeGkSk06g345No-78" value="" style="shape=flexArrow;endArrow=classic;startArrow=classic;html=1;rounded=0;endWidth=11.923076923076923;endSize=7.123076923076923;width=5.1923076923076925;startWidth=11.923076923076923;startSize=6.209615384615384;" edge="1" parent="1">
          <mxGeometry width="100" height="100" relative="1" as="geometry">
            <mxPoint x="670" y="600" as="sourcePoint" />
            <mxPoint x="740" y="600" as="targetPoint" />
          </mxGeometry>
        </mxCell>
        <mxCell id="JNBsQCVeGkSk06g345No-82" value="" style="group" vertex="1" connectable="0" parent="1">
          <mxGeometry x="720" y="536" width="126" height="126" as="geometry" />
        </mxCell>
        <mxCell id="JNBsQCVeGkSk06g345No-80" value="" style="shape=image;verticalLabelPosition=bottom;verticalAlign=top;imageAspect=0;aspect=fixed;image=data:image/svg+xml,PHN2ZyB4bWxucz0iaHR0cDovL3d3dy53My5vcmcvMjAwMC9zdmciIHZlcnNpb249IjEuMSIgdmlld0JveD0iMCAwIDEwMjQgMTAyNCIgaGVpZ2h0PSIyMDAuMDBweCIgd2lkdGg9IjIwMHB4IiBjbGFzcz0iaWNvbiI+PHBhdGggZmlsbD0iIzA0MDAwMCIgZD0iTTY2NS42IDU5My45NTJtLTM4LjQzMiAwYTM4LjQzMiAzOC40MzIgMCAxIDAgNzYuODY0IDAgMzguNDMyIDM4LjQzMiAwIDEgMC03Ni44NjQgMFoiLz48cGF0aCBmaWxsPSIjMDQwMDAwIiBkPSJNMzU4LjgxNiA1OTMuOTUybS0zOC40MzIgMGEzOC40MzIgMzguNDMyIDAgMSAwIDc2Ljg2NCAwIDM4LjQzMiAzOC40MzIgMCAxIDAtNzYuODY0IDBaIi8+PHBhdGggZmlsbD0iIzA0MDAwMCIgZD0iTTMzNC42ODggNTQ1Ljg4OEgyNTUuODA4djM3Ljc2YzAgNS42NjQgNC41NzYgMTAuMjQgMTAuMjQgMTAuMjRoMzguOTQ0YzAtMjAuODk2IDEyLjEyOC0zOS4xMDQgMjkuNjk2LTQ4ek03NjIuOTQ0IDUxOS42OGwtNjMuODQtMTA1LjE4NGEyMC4yMjQgMjAuMjI0IDAgMCAwLTE1LjU4NC04LjczNmgtNjguODY0YTEwLjI0IDEwLjI0IDAgMCAwLTEwLjI0IDEwLjI0djEyOS45MmgtMjIxLjUzNmMxNy41NjggOC44MzIgMjkuNjk2IDI3LjA0IDI5LjY5NiA0OGgxOTkuMmE1My44MjQgNTMuODI0IDAgMCAxIDEwNy41ODQgMGgzOC41MjhhMTAuMjQgMTAuMjQgMCAwIDAgMTAuMjQtMTAuMjR2LTQ0Ljk2YTQyLjI3MiA0Mi4yNzIgMCAwIDAtNS4xODQtMTkuMDR6IG0tNDQtMjUuMDg4bC04OS4wMjQtOS45ODRhNS44ODggNS44ODggMCAwIDEtNS4wODgtNS42OTZ2LTQ3LjUyYzAtMi44MTYgMi4zMDQtNS4xNTIgNS4xNTItNS4xNTJoNDcuMTM2YzIuODE2IDAgNi4zMzYgMS45NTIgNy44MDggNC4zODRsMzYuNDggNjAuMTI4YzEuNDQgMi40MzIgMC4zMiA0LjE2LTIuNDY0IDMuODR6Ii8+PC9zdmc+;flipH=1;" vertex="1" parent="JNBsQCVeGkSk06g345No-82">
          <mxGeometry width="126" height="126" as="geometry" />
        </mxCell>
        <mxCell id="JNBsQCVeGkSk06g345No-81" value="" style="rounded=0;whiteSpace=wrap;html=1;gradientColor=default;fillColor=#050505;" vertex="1" parent="JNBsQCVeGkSk06g345No-82">
          <mxGeometry x="54" y="49" width="37" height="16" as="geometry" />
        </mxCell>
        <mxCell id="JNBsQCVeGkSk06g345No-83" value="Container&lt;br&gt;Vessel" style="text;html=1;strokeColor=none;fillColor=none;align=center;verticalAlign=middle;whiteSpace=wrap;rounded=0;" vertex="1" parent="1">
          <mxGeometry x="30" y="460" width="60" height="30" as="geometry" />
        </mxCell>
        <mxCell id="JNBsQCVeGkSk06g345No-84" value="Quay Crane" style="text;html=1;strokeColor=none;fillColor=none;align=center;verticalAlign=middle;whiteSpace=wrap;rounded=0;" vertex="1" parent="1">
          <mxGeometry x="251.13" y="470" width="60" height="30" as="geometry" />
        </mxCell>
        <mxCell id="JNBsQCVeGkSk06g345No-85" value="Internal&lt;br&gt;Truck" style="text;html=1;strokeColor=none;fillColor=none;align=center;verticalAlign=middle;whiteSpace=wrap;rounded=0;" vertex="1" parent="1">
          <mxGeometry x="443" y="520" width="60" height="30" as="geometry" />
        </mxCell>
        <mxCell id="JNBsQCVeGkSk06g345No-86" value="Yard Crane" style="text;html=1;strokeColor=none;fillColor=none;align=center;verticalAlign=middle;whiteSpace=wrap;rounded=0;" vertex="1" parent="1">
          <mxGeometry x="595" y="470" width="60" height="30" as="geometry" />
        </mxCell>
        <mxCell id="JNBsQCVeGkSk06g345No-87" value="Yard&amp;nbsp;" style="text;html=1;strokeColor=none;fillColor=none;align=center;verticalAlign=middle;whiteSpace=wrap;rounded=0;" vertex="1" parent="1">
          <mxGeometry x="595" y="670" width="60" height="30" as="geometry" />
        </mxCell>
        <mxCell id="JNBsQCVeGkSk06g345No-88" value="External&lt;br&gt;Truck" style="text;html=1;strokeColor=none;fillColor=none;align=center;verticalAlign=middle;whiteSpace=wrap;rounded=0;" vertex="1" parent="1">
          <mxGeometry x="753" y="518" width="60" height="30" as="geometry" />
        </mxCell>
        <mxCell id="JNBsQCVeGkSk06g345No-89" value="" style="shape=flexArrow;endArrow=classic;startArrow=classic;html=1;rounded=0;endWidth=11.923076923076923;endSize=7.123076923076923;width=5.1923076923076925;startWidth=11.923076923076923;startSize=6.209615384615384;" edge="1" parent="1" source="JNBsQCVeGkSk06g345No-76">
          <mxGeometry width="100" height="100" relative="1" as="geometry">
            <mxPoint x="530" y="610" as="sourcePoint" />
            <mxPoint x="590" y="530" as="targetPoint" />
          </mxGeometry>
        </mxCell>
      </root>
    </mxGraphModel>
  </diagram>
</mxfile>
